<svg id="Layer_1" data-name="Layer 1" xmlns="http://www.w3.org/2000/svg" viewBox="0 0 923 768"><defs><style>.cls-1{fill:#26bdcf;}.cls-2,.cls-3,.cls-4,.cls-5{fill:#33bccd;}.cls-2{opacity:0.8;}.cls-3{opacity:0.9;}.cls-4{opacity:0.95;}.cls-5{opacity:0.7;}.cls-6{opacity:0.3;}</style></defs><title>Artboard 1</title><polygon class="cls-1" points="762.51 757.77 762.51 608.26 912.02 608.26 762.51 757.77"/><polygon class="cls-2" points="762.51 458.75 762.51 608.26 912.02 608.26 762.51 458.75"/><polygon class="cls-3" points="762.51 458.75 912.02 458.75 912.02 608.26 762.51 458.75"/><polygon class="cls-4" points="762.51 458.75 762.51 309.25 912.02 309.25 762.51 458.75"/><polygon class="cls-5" points="762.51 159.74 762.51 309.25 912.02 309.25 762.51 159.74"/><polygon class="cls-2" points="762.51 458.75 912.02 458.75 912.02 309.25 762.51 458.75"/><polygon class="cls-3" points="762.51 159.74 912.02 159.74 912.02 309.25 762.51 159.74"/><polygon class="cls-5" points="912.02 10.23 912.02 159.74 762.51 159.74 912.02 10.23"/><polygon class="cls-4" points="762.51 129.84 762.51 10.23 882.12 10.23 762.51 129.84"/><rect class="cls-1" x="313.98" y="608.26" width="149.51" height="149.51"/><polygon class="cls-5" points="463.49 757.77 463.49 608.26 613 608.26 463.49 757.77"/><polygon class="cls-5" points="313.98 757.77 313.98 608.26 164.47 608.26 313.98 757.77"/><polygon class="cls-2" points="463.49 458.75 463.49 608.26 613 608.26 463.49 458.75"/><polygon class="cls-2" points="313.98 458.75 313.98 608.26 164.47 608.26 313.98 458.75"/><polygon class="cls-3" points="463.49 458.75 613 458.75 613 608.26 463.49 458.75"/><polygon class="cls-3" points="313.98 458.75 164.47 458.75 164.47 608.26 313.98 458.75"/><polygon class="cls-4" points="463.49 458.75 463.49 309.25 613 309.25 463.49 458.75"/><polygon class="cls-4" points="313.98 458.75 313.98 309.25 164.47 309.25 313.98 458.75"/><polygon class="cls-5" points="463.49 159.74 463.49 309.25 613 309.25 463.49 159.74"/><polygon class="cls-5" points="313.98 159.74 313.98 309.25 164.47 309.25 313.98 159.74"/><polygon class="cls-2" points="463.49 458.75 613 458.75 613 309.25 463.49 458.75"/><polygon class="cls-2" points="313.98 458.75 164.47 458.75 164.47 309.25 313.98 458.75"/><polygon class="cls-3" points="463.49 159.74 613 159.74 613 309.25 463.49 159.74"/><polygon class="cls-3" points="313.98 159.74 164.47 159.74 164.47 309.25 313.98 159.74"/><polygon class="cls-2" points="313.98 159.74 164.47 159.74 164.47 10.23 313.98 159.74"/><polygon class="cls-5" points="613 10.23 613 159.74 463.49 159.74 613 10.23"/><polygon class="cls-5" points="14.96 10.23 164.47 10.23 164.47 159.74 14.96 10.23"/><path class="cls-1" d="M13.77,651.21H87.14a42.28,42.28,0,0,1,22,5.62,36.6,36.6,0,0,1,14.5,16.25q5.06,10.62,5,25.13,0,21.87-11.2,34t-30.68,12.1h-73v-24H83.18q13.11,0,19.23-5.27t6.13-17.45q0-11.79-6.17-17.1T83,675.17H13.77Z"/><path class="cls-1" d="M127.15,528.83v30.56L41.38,608.72v.7q22.73-1.47,32.41-1.48h53.36v21.48H13.77V599.1l84.92-49.25v-.54q-22.09,1.17-31.25,1.16H13.77V528.83Z"/><path class="cls-1" d="M127.15,482.62v23.65H13.77v-65h19.7v41.34H62.7V444.15H82.33v38.47Z"/><path class="cls-1" d="M70.31,322.17q28.14,0,43.27,14t15.12,40q0,26.06-15.12,40t-43.43,14q-28.31,0-43.24-14T12,376Q12,349.86,27,336T70.31,322.17Zm0,82.75q19,0,28.61-7.21t9.62-21.56q0-28.78-38.23-28.78T32,376q0,14.36,9.66,21.64T70.31,404.92Z"/><path class="cls-1" d="M127.15,304.65H13.77v-24H107.3v-46h19.85Z"/><path class="cls-1" d="M69.37,126.82q28,0,42.89,15.94t14.89,46v32.1H13.77V185.3q0-27.77,14.66-43.13T69.37,126.82Zm.62,25q-36.52,0-36.52,32.27v12.79H107.3V186.54Q107.3,151.79,70,151.79Z"/><polygon class="cls-6" points="912.02 174.69 912.02 159.74 762.51 159.74 912.02 174.69"/><polygon class="cls-6" points="762.51 593.31 762.51 608.26 912.02 608.26 762.51 593.31"/><polygon class="cls-6" points="613 174.69 613 159.74 463.49 159.74 613 174.69"/><polygon class="cls-6" points="448.54 608.26 463.49 608.26 463.49 757.77 448.54 608.26"/><polygon class="cls-6" points="313.98 593.31 313.98 608.26 164.47 608.26 313.98 593.31"/><polygon class="cls-6" points="164.47 174.69 164.47 159.74 313.98 159.74 164.47 174.69"/></svg>