<?xml version="1.0" encoding="utf-8"?>
<!-- Generator: Adobe Illustrator 22.1.0, SVG Export Plug-In . SVG Version: 6.00 Build 0)  -->
<svg version="1.1" id="Layer_1" xmlns="http://www.w3.org/2000/svg" xmlns:xlink="http://www.w3.org/1999/xlink" x="0px" y="0px"
	 viewBox="0 0 708 110" style="enable-background:new 0 0 708 110;" xml:space="preserve">
<style type="text/css">
	.st0{fill:#FFFFFF;}
</style>
<g>
	<path class="st0" d="M687.9,34.7c0-5.5,4.4-9.9,9.9-9.9c5.5,0,9.9,4.4,9.9,9.9c0,5.5-4.5,10-9.9,10
		C692.4,44.7,687.9,40.3,687.9,34.7z M705.2,34.7c0-4.4-3.1-7.6-7.3-7.6c-4.3,0-7.3,3.2-7.3,7.6c0,4.5,3,7.6,7.3,7.6
		C702.1,42.3,705.2,39.2,705.2,34.7z M702.8,40.2h-2.6l-2.4-4.5h-1.8v4.5h-2.3V29.4h5.2c2.8,0,4.2,0.8,4.2,3.3c0,2-1,2.8-2.9,2.9
		L702.8,40.2z M699,34c1.2,0,2.1-0.3,2.1-1.6c0-1.5-1.6-1.4-2.6-1.4h-2.4V34H699z"/>
	<g>
		<path class="st0" d="M63.2,15H40.3v73.4H22.6V15H-0.4V0h63.6V15z"/>
		<path class="st0" d="M86.7,31.3c5.3-4.4,11.9-8,19-8c6.9,0,16.7,4.2,16.7,19.9v45.1h-16.8V50.1c0-5.1,0.3-13.2-6.9-13.2
			c-4.9,0-8.7,3.5-11.9,6.9v44.5H69.9V0h16.8V31.3z"/>
		<path class="st0" d="M129.3,56.5c0-16.9,9.3-33.2,27.9-33.2c18.6,0,27.9,16.2,27.9,33.2c0,16.8-9.4,33.2-27.9,33.2
			C138.7,89.7,129.3,73.4,129.3,56.5z M167.9,56.5c0-8-1.6-20.8-10.7-20.8c-9.1,0-10.7,12.8-10.7,20.8c0,8,1.6,20.8,10.7,20.8
			C166.3,77.3,167.9,64.5,167.9,56.5z"/>
		<path class="st0" d="M228.2,81.8c-5.3,4.4-11.9,8-19,8c-6.9,0-16.7-4.2-16.7-19.9V24.7h16.8V63c0,5.1-0.3,13.2,6.9,13.2
			c4.9,0,8.7-3.5,11.9-6.9V24.7H245v63.6h-16.8V81.8z"/>
		<path class="st0" d="M272.5,67.5c-1.9,0-4.8,1-4.8,4c0,8.3,44.1-6.1,44.1,18.7c0,9.4-6.4,19.4-31.6,19.4c-21.9,0-29.4-7.7-29.4-16
			c0-4.9,3.1-7.4,6.9-9.7c-2.7-2-5-4.4-5-8.1c0-6.2,3.4-9.5,8.3-12.7c-4.7-4.5-7.9-10.2-7.9-17.5c0-14.1,11.9-22.3,25.7-22.3
			c5.6,0,10.9,1.6,15.7,4.4c3.4-3.2,6.5-5.2,11.5-5.2c1.6,0,3.3,0.1,4.9,0.5v11.8c-1.7-0.7-3.5-1.4-5.3-1.4c-1.8,0-2.9,0.6-4.5,1.4
			c1.8,3.4,3.3,7.2,3.4,10.8c0,14.1-11.8,22.3-25.6,22.3L272.5,67.5z M267.2,88.5c-1.6,1-2.6,1.9-2.6,4c0,5.9,11.9,6.2,15.9,6.2
			c2.8,0,17.6-0.3,17.6-5.5c0-3.3-2.3-3-12.3-3.5L267.2,88.5z M278.8,56.8c7,0,9.1-5.8,9.1-11.8c0-5.8-2.7-10.7-9.1-10.7
			c-7,0-9.2,5.9-9.2,11.9C269.6,52,272.3,56.8,278.8,56.8z"/>
		<path class="st0" d="M334.9,31.3c5.3-4.4,11.9-8,19-8c6.9,0,16.7,4.2,16.7,19.9v45.1h-16.8V50.1c0-5.1,0.3-13.2-6.9-13.2
			c-4.9,0-8.7,3.5-11.9,6.9v44.5h-16.8V0h16.8V31.3z"/>
		<path class="st0" d="M401.1,24.7h13.1v14h-13.1v32.4c0,3.1,0.9,6.2,6.4,6.2c2.8,0,4.7-1.1,6.7-2.4v12.8c-3.5,1-7.2,1.9-10.8,1.9
			c-10.4,0-19.1-5.9-19.1-19.8V38.7h-7.8v-14h7.8V8.9h16.8V24.7z"/>
		<path class="st0" d="M484.1,88.3H475l-15-72.2h-0.2L444,88.3h-9.1L416.4,0h8.9l14.5,71.3h0.2L455.9,0h8.7l15.1,71.3h0.2L495.6,0
			h8.7L484.1,88.3z"/>
		<path class="st0" d="M500.4,57c0-23.5,11.1-33.2,25.1-33.2c14,0,25.1,9.7,25.1,33.2c0,23.5-11.1,33.2-25.1,33.2
			C511.6,90.2,500.4,80.5,500.4,57z M541.8,57c0-10.7-2.6-25.7-16.2-25.7c-13.6,0-16.2,15-16.2,25.7c0,10.7,2.6,25.7,16.2,25.7
			C539.2,82.7,541.8,67.7,541.8,57z"/>
		<path class="st0" d="M566.4,39.2h0.2c3.5-7.5,8.1-14.4,17.4-14.4h3.4v8.1c-11.6-1.6-17.6,10.9-21,20v35.5h-8.9V25.7h8.9V39.2z"/>
		<path class="st0" d="M603.5,54.7l23.3-29.1h9.9l-17.3,21.5l19.9,41.2h-9.5l-16-34.1l-10.2,12.6v21.5h-8.9V0h8.9V54.7z"/>
		<path class="st0" d="M677.6,39.6c-3.5-5.2-7.7-8.3-14.3-8.3c-5.8,0-11.2,2.9-11.2,9.3c0,15.3,33.1,8.6,33.1,29.8
			c0,12.3-8.7,19.8-20.6,19.8c-10.1,0-18.3-4.4-23.4-13.2l7-4.4c3.4,6.5,8.9,10.1,16.4,10.1c6.5,0,12.3-3.5,12.3-10.7
			c0-15.8-33-8.3-33-30.8c0-10.8,8.9-17.4,19.2-17.4c8.7,0,16,3.6,20.9,10.9L677.6,39.6z"/>
	</g>
</g>
</svg>
